  0
SECTION
  2
BLOCKS
  0
ENDSEC
  0
SECTION
  2
ENTITIES
  0
LINE
  8
0
 10
20.0784
 20
-0.996902
 11
20.1564
 21
-0.987686
  0
LINE
  8
0
 10
20.1564
 20
-0.987686
 11
20.2334
 21
-0.972366
  0
LINE
  8
0
 10
20.2334
 20
-0.972366
 11
20.309
 21
-0.95105
  0
LINE
  8
0
 10
20.309
 20
-0.95105
 11
20.3827
 21
-0.923874
  0
LINE
  8
0
 10
20.3827
 20
-0.923874
 11
20.454
 21
-0.891006
  0
LINE
  8
0
 10
20.454
 20
-0.891006
 11
20.5225
 21
-0.852631
  0
LINE
  8
0
 10
20.5225
 20
-0.852631
 11
20.5878
 21
-0.809006
  0
LINE
  8
0
 10
20.5878
 20
-0.809006
 11
20.6494
 21
-0.760391
  0
LINE
  8
0
 10
20.6494
 20
-0.760391
 11
20.7071
 21
-0.707092
  0
LINE
  8
0
 10
20.7071
 20
-0.707092
 11
20.7604
 21
-0.649445
  0
LINE
  8
0
 10
20.7604
 20
-0.649445
 11
20.809
 21
-0.587784
  0
LINE
  8
0
 10
20.809
 20
-0.587784
 11
20.8526
 21
-0.522491
  0
LINE
  8
0
 10
20.8526
 20
-0.522491
 11
20.891
 21
-0.453979
  0
LINE
  8
0
 10
20.891
 20
-0.453979
 11
20.9239
 21
-0.382675
  0
LINE
  8
0
 10
20.9239
 20
-0.382675
 11
20.951
 21
-0.309006
  0
LINE
  8
0
 10
20.951
 20
-0.309006
 11
20.9724
 21
-0.233444
  0
LINE
  8
0
 10
20.9724
 20
-0.233444
 11
20.9877
 21
-0.156433
  0
LINE
  8
0
 10
20.9877
 20
-0.156433
 11
20.9969
 21
-0.0784454
  0
LINE
  8
0
 10
20.9969
 20
-0.0784454
 11
21
 21
0
  0
LINE
  8
0
 10
21
 20
0
 11
21
 21
40.38
  0
LINE
  8
0
 10
21
 20
40.38
 11
20.9969
 21
40.4584
  0
LINE
  8
0
 10
20.9969
 20
40.4584
 11
20.9877
 21
40.5364
  0
LINE
  8
0
 10
20.9877
 20
40.5364
 11
20.9724
 21
40.6134
  0
LINE
  8
0
 10
20.9724
 20
40.6134
 11
20.951
 21
40.689
  0
LINE
  8
0
 10
20.951
 20
40.689
 11
20.9239
 21
40.7627
  0
LINE
  8
0
 10
20.9239
 20
40.7627
 11
20.891
 21
40.834
  0
LINE
  8
0
 10
20.891
 20
40.834
 11
20.8526
 21
40.9025
  0
LINE
  8
0
 10
20.8526
 20
40.9025
 11
20.809
 21
40.9678
  0
LINE
  8
0
 10
20.809
 20
40.9678
 11
20.7604
 21
41.0294
  0
LINE
  8
0
 10
20.7604
 20
41.0294
 11
20.7071
 21
41.0871
  0
LINE
  8
0
 10
20.7071
 20
41.0871
 11
20.6494
 21
41.1404
  0
LINE
  8
0
 10
20.6494
 20
41.1404
 11
20.5878
 21
41.189
  0
LINE
  8
0
 10
20.5878
 20
41.189
 11
20.5225
 21
41.2326
  0
LINE
  8
0
 10
20.5225
 20
41.2326
 11
20.454
 21
41.271
  0
LINE
  8
0
 10
20.454
 20
41.271
 11
20.3827
 21
41.3039
  0
LINE
  8
0
 10
20.3827
 20
41.3039
 11
20.309
 21
41.331
  0
LINE
  8
0
 10
20.309
 20
41.331
 11
20.2334
 21
41.3524
  0
LINE
  8
0
 10
20.2334
 20
41.3524
 11
20.1564
 21
41.3677
  0
LINE
  8
0
 10
20.1564
 20
41.3677
 11
20.0784
 21
41.3769
  0
LINE
  8
0
 10
20.0784
 20
41.3769
 11
20
 21
41.38
  0
LINE
  8
0
 10
20
 20
41.38
 11
0
 21
41.38
  0
LINE
  8
0
 10
0
 20
41.38
 11
-0.0784454
 21
41.3769
  0
LINE
  8
0
 10
-0.0784454
 20
41.3769
 11
-0.156433
 21
41.3677
  0
LINE
  8
0
 10
-0.156433
 20
41.3677
 11
-0.233444
 21
41.3524
  0
LINE
  8
0
 10
-0.233444
 20
41.3524
 11
-0.309006
 21
41.331
  0
LINE
  8
0
 10
-0.309006
 20
41.331
 11
-0.382675
 21
41.3039
  0
LINE
  8
0
 10
-0.382675
 20
41.3039
 11
-0.453979
 21
41.271
  0
LINE
  8
0
 10
-0.453979
 20
41.271
 11
-0.522491
 21
41.2326
  0
LINE
  8
0
 10
-0.522491
 20
41.2326
 11
-0.587784
 21
41.189
  0
LINE
  8
0
 10
-0.587784
 20
41.189
 11
-0.649445
 21
41.1404
  0
LINE
  8
0
 10
-0.649445
 20
41.1404
 11
-0.707092
 21
41.0871
  0
LINE
  8
0
 10
-0.707092
 20
41.0871
 11
-0.760391
 21
41.0294
  0
LINE
  8
0
 10
-0.760391
 20
41.0294
 11
-0.809006
 21
40.9678
  0
LINE
  8
0
 10
-0.809006
 20
40.9678
 11
-0.852631
 21
40.9025
  0
LINE
  8
0
 10
-0.852631
 20
40.9025
 11
-0.891006
 21
40.834
  0
LINE
  8
0
 10
-0.891006
 20
40.834
 11
-0.923874
 21
40.7627
  0
LINE
  8
0
 10
-0.923874
 20
40.7627
 11
-0.95105
 21
40.689
  0
LINE
  8
0
 10
-0.95105
 20
40.689
 11
-0.972366
 21
40.6134
  0
LINE
  8
0
 10
-0.972366
 20
40.6134
 11
-0.987686
 21
40.5364
  0
LINE
  8
0
 10
-0.987686
 20
40.5364
 11
-0.996902
 21
40.4584
  0
LINE
  8
0
 10
-0.996902
 20
40.4584
 11
-1
 21
40.38
  0
LINE
  8
0
 10
-1
 20
40.38
 11
-1
 21
0
  0
LINE
  8
0
 10
-1
 20
0
 11
-0.996902
 21
-0.0784454
  0
LINE
  8
0
 10
-0.996902
 20
-0.0784454
 11
-0.987686
 21
-0.156433
  0
LINE
  8
0
 10
-0.987686
 20
-0.156433
 11
-0.972366
 21
-0.233444
  0
LINE
  8
0
 10
-0.972366
 20
-0.233444
 11
-0.95105
 21
-0.309006
  0
LINE
  8
0
 10
-0.95105
 20
-0.309006
 11
-0.923874
 21
-0.382675
  0
LINE
  8
0
 10
-0.923874
 20
-0.382675
 11
-0.891006
 21
-0.453979
  0
LINE
  8
0
 10
-0.891006
 20
-0.453979
 11
-0.852631
 21
-0.522491
  0
LINE
  8
0
 10
-0.852631
 20
-0.522491
 11
-0.809006
 21
-0.587784
  0
LINE
  8
0
 10
-0.809006
 20
-0.587784
 11
-0.760391
 21
-0.649445
  0
LINE
  8
0
 10
-0.760391
 20
-0.649445
 11
-0.707092
 21
-0.707092
  0
LINE
  8
0
 10
-0.707092
 20
-0.707092
 11
-0.649445
 21
-0.760391
  0
LINE
  8
0
 10
-0.649445
 20
-0.760391
 11
-0.587784
 21
-0.809006
  0
LINE
  8
0
 10
-0.587784
 20
-0.809006
 11
-0.522491
 21
-0.852631
  0
LINE
  8
0
 10
-0.522491
 20
-0.852631
 11
-0.453979
 21
-0.891006
  0
LINE
  8
0
 10
-0.453979
 20
-0.891006
 11
-0.382675
 21
-0.923874
  0
LINE
  8
0
 10
-0.382675
 20
-0.923874
 11
-0.309006
 21
-0.95105
  0
LINE
  8
0
 10
-0.309006
 20
-0.95105
 11
-0.233444
 21
-0.972366
  0
LINE
  8
0
 10
-0.233444
 20
-0.972366
 11
-0.156433
 21
-0.987686
  0
LINE
  8
0
 10
-0.156433
 20
-0.987686
 11
-0.0784454
 21
-0.996902
  0
LINE
  8
0
 10
-0.0784454
 20
-0.996902
 11
0
 21
-1
  0
LINE
  8
0
 10
0
 20
-1
 11
20
 21
-1
  0
LINE
  8
0
 10
20
 20
-1
 11
20.0784
 21
-0.996902
  0
LINE
  8
0
 10
2.58762
 20
2.12323
 11
2.50574
 21
2.13292
  0
LINE
  8
0
 10
2.50574
 20
2.13292
 11
2.42488
 21
2.149
  0
LINE
  8
0
 10
2.42488
 20
2.149
 11
2.34552
 21
2.17139
  0
LINE
  8
0
 10
2.34552
 20
2.17139
 11
2.26817
 21
2.19992
  0
LINE
  8
0
 10
2.26817
 20
2.19992
 11
2.1933
 21
2.23444
  0
LINE
  8
0
 10
2.1933
 20
2.23444
 11
2.12137
 21
2.27472
  0
LINE
  8
0
 10
2.12137
 20
2.27472
 11
2.05281
 21
2.32053
  0
LINE
  8
0
 10
2.05281
 20
2.32053
 11
1.98807
 21
2.37157
  0
LINE
  8
0
 10
1.98807
 20
2.37157
 11
1.92754
 21
2.42754
  0
LINE
  8
0
 10
1.92754
 20
2.42754
 11
1.87157
 21
2.48807
  0
LINE
  8
0
 10
1.87157
 20
2.48807
 11
1.82053
 21
2.55281
  0
LINE
  8
0
 10
1.82053
 20
2.55281
 11
1.77472
 21
2.62137
  0
LINE
  8
0
 10
1.77472
 20
2.62137
 11
1.73444
 21
2.6933
  0
LINE
  8
0
 10
1.73444
 20
2.6933
 11
1.69992
 21
2.76817
  0
LINE
  8
0
 10
1.69992
 20
2.76817
 11
1.67139
 21
2.84552
  0
LINE
  8
0
 10
1.67139
 20
2.84552
 11
1.649
 21
2.92488
  0
LINE
  8
0
 10
1.649
 20
2.92488
 11
1.63292
 21
3.00574
  0
LINE
  8
0
 10
1.63292
 20
3.00574
 11
1.62323
 21
3.08762
  0
LINE
  8
0
 10
1.62323
 20
3.08762
 11
1.62
 21
3.17
  0
LINE
  8
0
 10
1.62
 20
3.17
 11
1.62323
 21
3.25238
  0
LINE
  8
0
 10
1.62323
 20
3.25238
 11
1.63292
 21
3.33424
  0
LINE
  8
0
 10
1.63292
 20
3.33424
 11
1.649
 21
3.41512
  0
LINE
  8
0
 10
1.649
 20
3.41512
 11
1.67139
 21
3.49446
  0
LINE
  8
0
 10
1.67139
 20
3.49446
 11
1.69992
 21
3.57181
  0
LINE
  8
0
 10
1.69992
 20
3.57181
 11
1.73444
 21
3.64668
  0
LINE
  8
0
 10
1.73444
 20
3.64668
 11
1.77472
 21
3.71861
  0
LINE
  8
0
 10
1.77472
 20
3.71861
 11
1.82053
 21
3.78717
  0
LINE
  8
0
 10
1.82053
 20
3.78717
 11
1.87157
 21
3.85191
  0
LINE
  8
0
 10
1.87157
 20
3.85191
 11
1.92754
 21
3.91246
  0
LINE
  8
0
 10
1.92754
 20
3.91246
 11
1.98807
 21
3.96841
  0
LINE
  8
0
 10
1.98807
 20
3.96841
 11
2.05281
 21
4.01945
  0
LINE
  8
0
 10
2.05281
 20
4.01945
 11
2.12137
 21
4.06526
  0
LINE
  8
0
 10
2.12137
 20
4.06526
 11
2.1933
 21
4.10555
  0
LINE
  8
0
 10
2.1933
 20
4.10555
 11
2.26817
 21
4.14006
  0
LINE
  8
0
 10
2.26817
 20
4.14006
 11
2.34552
 21
4.16859
  0
LINE
  8
0
 10
2.34552
 20
4.16859
 11
2.42488
 21
4.19098
  0
LINE
  8
0
 10
2.42488
 20
4.19098
 11
2.50574
 21
4.20706
  0
LINE
  8
0
 10
2.50574
 20
4.20706
 11
2.58762
 21
4.21675
  0
LINE
  8
0
 10
2.58762
 20
4.21675
 11
2.67
 21
4.21999
  0
LINE
  8
0
 10
2.67
 20
4.21999
 11
2.75238
 21
4.21675
  0
LINE
  8
0
 10
2.75238
 20
4.21675
 11
2.83424
 21
4.20706
  0
LINE
  8
0
 10
2.83424
 20
4.20706
 11
2.91512
 21
4.19098
  0
LINE
  8
0
 10
2.91512
 20
4.19098
 11
2.99446
 21
4.16859
  0
LINE
  8
0
 10
2.99446
 20
4.16859
 11
3.07181
 21
4.14006
  0
LINE
  8
0
 10
3.07181
 20
4.14006
 11
3.14668
 21
4.10555
  0
LINE
  8
0
 10
3.14668
 20
4.10555
 11
3.21861
 21
4.06526
  0
LINE
  8
0
 10
3.21861
 20
4.06526
 11
3.28717
 21
4.01945
  0
LINE
  8
0
 10
3.28717
 20
4.01945
 11
3.35191
 21
3.96841
  0
LINE
  8
0
 10
3.35191
 20
3.96841
 11
3.41246
 21
3.91246
  0
LINE
  8
0
 10
3.41246
 20
3.91246
 11
3.46841
 21
3.85191
  0
LINE
  8
0
 10
3.46841
 20
3.85191
 11
3.51945
 21
3.78717
  0
LINE
  8
0
 10
3.51945
 20
3.78717
 11
3.56526
 21
3.71861
  0
LINE
  8
0
 10
3.56526
 20
3.71861
 11
3.60555
 21
3.64668
  0
LINE
  8
0
 10
3.60555
 20
3.64668
 11
3.64006
 21
3.57181
  0
LINE
  8
0
 10
3.64006
 20
3.57181
 11
3.66859
 21
3.49446
  0
LINE
  8
0
 10
3.66859
 20
3.49446
 11
3.69098
 21
3.41512
  0
LINE
  8
0
 10
3.69098
 20
3.41512
 11
3.70706
 21
3.33424
  0
LINE
  8
0
 10
3.70706
 20
3.33424
 11
3.71675
 21
3.25238
  0
LINE
  8
0
 10
3.71675
 20
3.25238
 11
3.71999
 21
3.17
  0
LINE
  8
0
 10
3.71999
 20
3.17
 11
3.71675
 21
3.08762
  0
LINE
  8
0
 10
3.71675
 20
3.08762
 11
3.70706
 21
3.00574
  0
LINE
  8
0
 10
3.70706
 20
3.00574
 11
3.69098
 21
2.92488
  0
LINE
  8
0
 10
3.69098
 20
2.92488
 11
3.66859
 21
2.84552
  0
LINE
  8
0
 10
3.66859
 20
2.84552
 11
3.64006
 21
2.76817
  0
LINE
  8
0
 10
3.64006
 20
2.76817
 11
3.60555
 21
2.6933
  0
LINE
  8
0
 10
3.60555
 20
2.6933
 11
3.56526
 21
2.62137
  0
LINE
  8
0
 10
3.56526
 20
2.62137
 11
3.51945
 21
2.55281
  0
LINE
  8
0
 10
3.51945
 20
2.55281
 11
3.46841
 21
2.48807
  0
LINE
  8
0
 10
3.46841
 20
2.48807
 11
3.41246
 21
2.42754
  0
LINE
  8
0
 10
3.41246
 20
2.42754
 11
3.35191
 21
2.37157
  0
LINE
  8
0
 10
3.35191
 20
2.37157
 11
3.28717
 21
2.32053
  0
LINE
  8
0
 10
3.28717
 20
2.32053
 11
3.21861
 21
2.27472
  0
LINE
  8
0
 10
3.21861
 20
2.27472
 11
3.14668
 21
2.23444
  0
LINE
  8
0
 10
3.14668
 20
2.23444
 11
3.07181
 21
2.19992
  0
LINE
  8
0
 10
3.07181
 20
2.19992
 11
2.99446
 21
2.17139
  0
LINE
  8
0
 10
2.99446
 20
2.17139
 11
2.91512
 21
2.149
  0
LINE
  8
0
 10
2.91512
 20
2.149
 11
2.83424
 21
2.13292
  0
LINE
  8
0
 10
2.83424
 20
2.13292
 11
2.75238
 21
2.12323
  0
LINE
  8
0
 10
2.75238
 20
2.12323
 11
2.67
 21
2.12
  0
LINE
  8
0
 10
2.67
 20
2.12
 11
2.58762
 21
2.12323
  0
LINE
  8
0
 10
17.8276
 20
2.12323
 11
17.7457
 21
2.13292
  0
LINE
  8
0
 10
17.7457
 20
2.13292
 11
17.6649
 21
2.149
  0
LINE
  8
0
 10
17.6649
 20
2.149
 11
17.5855
 21
2.17139
  0
LINE
  8
0
 10
17.5855
 20
2.17139
 11
17.5082
 21
2.19992
  0
LINE
  8
0
 10
17.5082
 20
2.19992
 11
17.4333
 21
2.23444
  0
LINE
  8
0
 10
17.4333
 20
2.23444
 11
17.3614
 21
2.27472
  0
LINE
  8
0
 10
17.3614
 20
2.27472
 11
17.2928
 21
2.32053
  0
LINE
  8
0
 10
17.2928
 20
2.32053
 11
17.2281
 21
2.37157
  0
LINE
  8
0
 10
17.2281
 20
2.37157
 11
17.1675
 21
2.42754
  0
LINE
  8
0
 10
17.1675
 20
2.42754
 11
17.1116
 21
2.48807
  0
LINE
  8
0
 10
17.1116
 20
2.48807
 11
17.0605
 21
2.55281
  0
LINE
  8
0
 10
17.0605
 20
2.55281
 11
17.0147
 21
2.62137
  0
LINE
  8
0
 10
17.0147
 20
2.62137
 11
16.9744
 21
2.6933
  0
LINE
  8
0
 10
16.9744
 20
2.6933
 11
16.9399
 21
2.76817
  0
LINE
  8
0
 10
16.9399
 20
2.76817
 11
16.9114
 21
2.84552
  0
LINE
  8
0
 10
16.9114
 20
2.84552
 11
16.889
 21
2.92488
  0
LINE
  8
0
 10
16.889
 20
2.92488
 11
16.8729
 21
3.00574
  0
LINE
  8
0
 10
16.8729
 20
3.00574
 11
16.8632
 21
3.08762
  0
LINE
  8
0
 10
16.8632
 20
3.08762
 11
16.86
 21
3.17
  0
LINE
  8
0
 10
16.86
 20
3.17
 11
16.8632
 21
3.25238
  0
LINE
  8
0
 10
16.8632
 20
3.25238
 11
16.8729
 21
3.33424
  0
LINE
  8
0
 10
16.8729
 20
3.33424
 11
16.889
 21
3.41512
  0
LINE
  8
0
 10
16.889
 20
3.41512
 11
16.9114
 21
3.49446
  0
LINE
  8
0
 10
16.9114
 20
3.49446
 11
16.9399
 21
3.57181
  0
LINE
  8
0
 10
16.9399
 20
3.57181
 11
16.9744
 21
3.64668
  0
LINE
  8
0
 10
16.9744
 20
3.64668
 11
17.0147
 21
3.71861
  0
LINE
  8
0
 10
17.0147
 20
3.71861
 11
17.0605
 21
3.78717
  0
LINE
  8
0
 10
17.0605
 20
3.78717
 11
17.1116
 21
3.85191
  0
LINE
  8
0
 10
17.1116
 20
3.85191
 11
17.1675
 21
3.91246
  0
LINE
  8
0
 10
17.1675
 20
3.91246
 11
17.2281
 21
3.96841
  0
LINE
  8
0
 10
17.2281
 20
3.96841
 11
17.2928
 21
4.01945
  0
LINE
  8
0
 10
17.2928
 20
4.01945
 11
17.3614
 21
4.06526
  0
LINE
  8
0
 10
17.3614
 20
4.06526
 11
17.4333
 21
4.10555
  0
LINE
  8
0
 10
17.4333
 20
4.10555
 11
17.5082
 21
4.14006
  0
LINE
  8
0
 10
17.5082
 20
4.14006
 11
17.5855
 21
4.16859
  0
LINE
  8
0
 10
17.5855
 20
4.16859
 11
17.6649
 21
4.19098
  0
LINE
  8
0
 10
17.6649
 20
4.19098
 11
17.7457
 21
4.20706
  0
LINE
  8
0
 10
17.7457
 20
4.20706
 11
17.8276
 21
4.21675
  0
LINE
  8
0
 10
17.8276
 20
4.21675
 11
17.91
 21
4.21999
  0
LINE
  8
0
 10
17.91
 20
4.21999
 11
17.9924
 21
4.21675
  0
LINE
  8
0
 10
17.9924
 20
4.21675
 11
18.0742
 21
4.20706
  0
LINE
  8
0
 10
18.0742
 20
4.20706
 11
18.1551
 21
4.19098
  0
LINE
  8
0
 10
18.1551
 20
4.19098
 11
18.2345
 21
4.16859
  0
LINE
  8
0
 10
18.2345
 20
4.16859
 11
18.3118
 21
4.14006
  0
LINE
  8
0
 10
18.3118
 20
4.14006
 11
18.3867
 21
4.10555
  0
LINE
  8
0
 10
18.3867
 20
4.10555
 11
18.4586
 21
4.06526
  0
LINE
  8
0
 10
18.4586
 20
4.06526
 11
18.5272
 21
4.01945
  0
LINE
  8
0
 10
18.5272
 20
4.01945
 11
18.5919
 21
3.96841
  0
LINE
  8
0
 10
18.5919
 20
3.96841
 11
18.6525
 21
3.91246
  0
LINE
  8
0
 10
18.6525
 20
3.91246
 11
18.7084
 21
3.85191
  0
LINE
  8
0
 10
18.7084
 20
3.85191
 11
18.7595
 21
3.78717
  0
LINE
  8
0
 10
18.7595
 20
3.78717
 11
18.8053
 21
3.71861
  0
LINE
  8
0
 10
18.8053
 20
3.71861
 11
18.8456
 21
3.64668
  0
LINE
  8
0
 10
18.8456
 20
3.64668
 11
18.8801
 21
3.57181
  0
LINE
  8
0
 10
18.8801
 20
3.57181
 11
18.9086
 21
3.49446
  0
LINE
  8
0
 10
18.9086
 20
3.49446
 11
18.931
 21
3.41512
  0
LINE
  8
0
 10
18.931
 20
3.41512
 11
18.9471
 21
3.33424
  0
LINE
  8
0
 10
18.9471
 20
3.33424
 11
18.9568
 21
3.25238
  0
LINE
  8
0
 10
18.9568
 20
3.25238
 11
18.96
 21
3.17
  0
LINE
  8
0
 10
18.96
 20
3.17
 11
18.9568
 21
3.08762
  0
LINE
  8
0
 10
18.9568
 20
3.08762
 11
18.9471
 21
3.00574
  0
LINE
  8
0
 10
18.9471
 20
3.00574
 11
18.931
 21
2.92488
  0
LINE
  8
0
 10
18.931
 20
2.92488
 11
18.9086
 21
2.84552
  0
LINE
  8
0
 10
18.9086
 20
2.84552
 11
18.8801
 21
2.76817
  0
LINE
  8
0
 10
18.8801
 20
2.76817
 11
18.8456
 21
2.6933
  0
LINE
  8
0
 10
18.8456
 20
2.6933
 11
18.8053
 21
2.62137
  0
LINE
  8
0
 10
18.8053
 20
2.62137
 11
18.7595
 21
2.55281
  0
LINE
  8
0
 10
18.7595
 20
2.55281
 11
18.7084
 21
2.48807
  0
LINE
  8
0
 10
18.7084
 20
2.48807
 11
18.6525
 21
2.42754
  0
LINE
  8
0
 10
18.6525
 20
2.42754
 11
18.5919
 21
2.37157
  0
LINE
  8
0
 10
18.5919
 20
2.37157
 11
18.5272
 21
2.32053
  0
LINE
  8
0
 10
18.5272
 20
2.32053
 11
18.4586
 21
2.27472
  0
LINE
  8
0
 10
18.4586
 20
2.27472
 11
18.3867
 21
2.23444
  0
LINE
  8
0
 10
18.3867
 20
2.23444
 11
18.3118
 21
2.19992
  0
LINE
  8
0
 10
18.3118
 20
2.19992
 11
18.2345
 21
2.17139
  0
LINE
  8
0
 10
18.2345
 20
2.17139
 11
18.1551
 21
2.149
  0
LINE
  8
0
 10
18.1551
 20
2.149
 11
18.0742
 21
2.13292
  0
LINE
  8
0
 10
18.0742
 20
2.13292
 11
17.9924
 21
2.12323
  0
LINE
  8
0
 10
17.9924
 20
2.12323
 11
17.91
 21
2.12
  0
LINE
  8
0
 10
17.91
 20
2.12
 11
17.8276
 21
2.12323
  0
ENDSEC
  0
SECTION
  2
OBJECTS
  0
DICTIONARY
  0
ENDSEC
  0
EOF
